<?xml version="1.0" standalone="no"?>
<!DOCTYPE svg PUBLIC "-//W3C//DTD SVG 20010904//EN"
 "http://www.w3.org/TR/2001/REC-SVG-20010904/DTD/svg10.dtd">
<svg version="1.0" xmlns="http://www.w3.org/2000/svg"
 width="512.000000pt" height="512.000000pt" viewBox="0 0 512.000000 512.000000"
 preserveAspectRatio="xMidYMid meet">
<metadata>
Created by potrace 1.14, written by Peter Selinger 2001-2017
</metadata>
<g transform="translate(0.000000,512.000000) scale(0.100000,-0.100000)"
fill="#000000" stroke="none">
<path d="M3866 3388 c-3 -13 -15 -86 -26 -163 -31 -206 -19 -185 -111 -185
l-79 0 0 -145 0 -145 74 0 75 0 3 -402 c3 -396 4 -404 27 -462 29 -73 86 -137
149 -167 66 -31 218 -37 322 -12 l75 18 3 122 3 121 -90 3 c-146 6 -135 -24
-139 414 l-3 365 116 0 116 0 -3 143 -3 142 -112 3 -113 3 0 184 0 185 -140 0
c-137 0 -140 0 -144 -22z"/>
<path d="M1350 3060 c-74 -16 -152 -61 -219 -127 -36 -34 -67 -60 -70 -58 -3
3 -10 40 -15 83 l-11 77 -150 0 -150 0 -3 -657 -2 -658 174 0 175 0 3 418 c4
449 4 447 59 529 35 50 115 93 173 93 46 0 112 -28 138 -57 45 -50 48 -81 48
-544 l0 -439 174 0 175 0 3 423 3 422 28 57 c49 100 129 147 226 134 62 -9
106 -39 133 -94 23 -47 23 -50 26 -494 l3 -448 175 0 175 0 -3 503 c-5 537 -6
556 -58 658 -48 94 -158 164 -284 182 -154 22 -301 -26 -409 -135 -32 -32 -62
-58 -65 -58 -4 0 -22 23 -41 51 -38 56 -98 102 -163 125 -53 19 -188 26 -248
14z"/>
<path d="M2890 2400 l0 -150 305 0 305 0 0 150 0 150 -305 0 -305 0 0 -150z"/>
</g>
</svg>
